<?xml version="1.0" standalone="no"?><svg xmlns="http://www.w3.org/2000/svg" viewBox="0 0 1440 320"><path fill="#3F51B5" fill-opacity="1" d="M0,224L30,208C60,192,120,160,180,138.7C240,117,300,107,360,133.3C420,160,480,224,540,229.3C600,235,660,181,720,181.3C780,181,840,235,900,234.7C960,235,1020,181,1080,154.7C1140,128,1200,128,1260,133.3C1320,139,1380,149,1410,154.7L1440,160L1440,320L1410,320C1380,320,1320,320,1260,320C1200,320,1140,320,1080,320C1020,320,960,320,900,320C840,320,780,320,720,320C660,320,600,320,540,320C480,320,420,320,360,320C300,320,240,320,180,320C120,320,60,320,30,320L0,320Z"></path></svg>